<mxfile host="app.diagrams.net" agent="Mozilla/5.0 (X11; Linux x86_64; rv:132.0) Gecko/20100101 Firefox/132.0" version="25.0.1">
  <diagram name="Page-1" id="L1Y0BmZAt57lqMl_p0DY">
    <mxGraphModel dx="2279" dy="1400" grid="1" gridSize="10" guides="1" tooltips="1" connect="1" arrows="1" fold="1" page="1" pageScale="1" pageWidth="850" pageHeight="1100" math="0" shadow="0">
      <root>
        <mxCell id="0" />
        <mxCell id="1" parent="0" />
        <mxCell id="jR0rXX4GCu3ixdCMKzGH-11" value="" style="edgeStyle=orthogonalEdgeStyle;rounded=0;orthogonalLoop=1;jettySize=auto;html=1;" edge="1" parent="1" source="jR0rXX4GCu3ixdCMKzGH-1" target="jR0rXX4GCu3ixdCMKzGH-10">
          <mxGeometry relative="1" as="geometry" />
        </mxCell>
        <mxCell id="jR0rXX4GCu3ixdCMKzGH-1" value="x is initialized with value 10" style="rounded=0;whiteSpace=wrap;html=1;" vertex="1" parent="1">
          <mxGeometry x="520" y="240" width="120" height="60" as="geometry" />
        </mxCell>
        <mxCell id="jR0rXX4GCu3ixdCMKzGH-4" style="edgeStyle=orthogonalEdgeStyle;rounded=0;orthogonalLoop=1;jettySize=auto;html=1;" edge="1" parent="1" source="jR0rXX4GCu3ixdCMKzGH-3" target="jR0rXX4GCu3ixdCMKzGH-1">
          <mxGeometry relative="1" as="geometry" />
        </mxCell>
        <mxCell id="jR0rXX4GCu3ixdCMKzGH-3" value="Program Start" style="rounded=0;whiteSpace=wrap;html=1;" vertex="1" parent="1">
          <mxGeometry x="520" y="100" width="120" height="60" as="geometry" />
        </mxCell>
        <mxCell id="jR0rXX4GCu3ixdCMKzGH-14" style="edgeStyle=orthogonalEdgeStyle;rounded=0;orthogonalLoop=1;jettySize=auto;html=1;entryX=0;entryY=0.5;entryDx=0;entryDy=0;" edge="1" parent="1" source="jR0rXX4GCu3ixdCMKzGH-6" target="jR0rXX4GCu3ixdCMKzGH-12">
          <mxGeometry relative="1" as="geometry" />
        </mxCell>
        <mxCell id="jR0rXX4GCu3ixdCMKzGH-27" style="edgeStyle=orthogonalEdgeStyle;rounded=0;orthogonalLoop=1;jettySize=auto;html=1;entryX=0;entryY=0.5;entryDx=0;entryDy=0;" edge="1" parent="1" source="jR0rXX4GCu3ixdCMKzGH-6" target="jR0rXX4GCu3ixdCMKzGH-24">
          <mxGeometry relative="1" as="geometry" />
        </mxCell>
        <mxCell id="jR0rXX4GCu3ixdCMKzGH-6" value="Variable Tracker Map" style="shape=cylinder3;whiteSpace=wrap;html=1;boundedLbl=1;backgroundOutline=1;size=15;" vertex="1" parent="1">
          <mxGeometry x="150" y="50" width="100" height="160" as="geometry" />
        </mxCell>
        <mxCell id="jR0rXX4GCu3ixdCMKzGH-13" value="" style="edgeStyle=orthogonalEdgeStyle;rounded=0;orthogonalLoop=1;jettySize=auto;html=1;" edge="1" parent="1" source="jR0rXX4GCu3ixdCMKzGH-10" target="jR0rXX4GCu3ixdCMKzGH-12">
          <mxGeometry relative="1" as="geometry" />
        </mxCell>
        <mxCell id="jR0rXX4GCu3ixdCMKzGH-10" value="for loop started" style="whiteSpace=wrap;html=1;rounded=0;" vertex="1" parent="1">
          <mxGeometry x="520" y="370" width="120" height="60" as="geometry" />
        </mxCell>
        <mxCell id="jR0rXX4GCu3ixdCMKzGH-17" value="" style="edgeStyle=orthogonalEdgeStyle;rounded=0;orthogonalLoop=1;jettySize=auto;html=1;" edge="1" parent="1" source="jR0rXX4GCu3ixdCMKzGH-12" target="jR0rXX4GCu3ixdCMKzGH-16">
          <mxGeometry relative="1" as="geometry" />
        </mxCell>
        <mxCell id="jR0rXX4GCu3ixdCMKzGH-12" value="get the value of x" style="whiteSpace=wrap;html=1;rounded=0;" vertex="1" parent="1">
          <mxGeometry x="520" y="510" width="120" height="60" as="geometry" />
        </mxCell>
        <mxCell id="jR0rXX4GCu3ixdCMKzGH-15" style="edgeStyle=orthogonalEdgeStyle;rounded=0;orthogonalLoop=1;jettySize=auto;html=1;entryX=0.5;entryY=1;entryDx=0;entryDy=0;entryPerimeter=0;" edge="1" parent="1" source="jR0rXX4GCu3ixdCMKzGH-1" target="jR0rXX4GCu3ixdCMKzGH-6">
          <mxGeometry relative="1" as="geometry" />
        </mxCell>
        <mxCell id="jR0rXX4GCu3ixdCMKzGH-20" value="" style="edgeStyle=orthogonalEdgeStyle;rounded=0;orthogonalLoop=1;jettySize=auto;html=1;" edge="1" parent="1" source="jR0rXX4GCu3ixdCMKzGH-16" target="jR0rXX4GCu3ixdCMKzGH-19">
          <mxGeometry relative="1" as="geometry" />
        </mxCell>
        <mxCell id="jR0rXX4GCu3ixdCMKzGH-23" value="No" style="edgeLabel;html=1;align=center;verticalAlign=middle;resizable=0;points=[];" vertex="1" connectable="0" parent="jR0rXX4GCu3ixdCMKzGH-20">
          <mxGeometry x="-0.46" relative="1" as="geometry">
            <mxPoint as="offset" />
          </mxGeometry>
        </mxCell>
        <mxCell id="jR0rXX4GCu3ixdCMKzGH-25" value="" style="edgeStyle=orthogonalEdgeStyle;rounded=0;orthogonalLoop=1;jettySize=auto;html=1;" edge="1" parent="1" source="jR0rXX4GCu3ixdCMKzGH-16" target="jR0rXX4GCu3ixdCMKzGH-24">
          <mxGeometry relative="1" as="geometry" />
        </mxCell>
        <mxCell id="jR0rXX4GCu3ixdCMKzGH-26" value="yes" style="edgeLabel;html=1;align=center;verticalAlign=middle;resizable=0;points=[];" vertex="1" connectable="0" parent="jR0rXX4GCu3ixdCMKzGH-25">
          <mxGeometry x="-0.0519" y="3" relative="1" as="geometry">
            <mxPoint x="-3" y="-4" as="offset" />
          </mxGeometry>
        </mxCell>
        <mxCell id="jR0rXX4GCu3ixdCMKzGH-16" value="check &lt;b&gt;x&lt;/b&gt; if less than &lt;br&gt;&lt;div style=&quot;color: #c5cdde;background-color: #121721;font-family: &#39;Droid Sans Mono&#39;, &#39;monospace&#39;, monospace;font-weight: normal;font-size: 14px;line-height: 19px;white-space: pre;&quot;&gt;&lt;div&gt;&lt;span style=&quot;color: #c5cdde;&quot;&gt;10,000,000&lt;/span&gt;&lt;/div&gt;&lt;/div&gt;" style="rhombus;whiteSpace=wrap;html=1;rounded=0;" vertex="1" parent="1">
          <mxGeometry x="500" y="640" width="160" height="170" as="geometry" />
        </mxCell>
        <mxCell id="jR0rXX4GCu3ixdCMKzGH-19" value="End the program" style="whiteSpace=wrap;html=1;rounded=0;" vertex="1" parent="1">
          <mxGeometry x="830" y="695" width="120" height="60" as="geometry" />
        </mxCell>
        <mxCell id="jR0rXX4GCu3ixdCMKzGH-29" value="" style="edgeStyle=orthogonalEdgeStyle;rounded=0;orthogonalLoop=1;jettySize=auto;html=1;" edge="1" parent="1" source="jR0rXX4GCu3ixdCMKzGH-24" target="jR0rXX4GCu3ixdCMKzGH-28">
          <mxGeometry relative="1" as="geometry" />
        </mxCell>
        <mxCell id="jR0rXX4GCu3ixdCMKzGH-24" value="Get the value of x again!" style="whiteSpace=wrap;html=1;rounded=0;" vertex="1" parent="1">
          <mxGeometry x="520" y="945" width="120" height="60" as="geometry" />
        </mxCell>
        <mxCell id="jR0rXX4GCu3ixdCMKzGH-31" value="" style="edgeStyle=orthogonalEdgeStyle;rounded=0;orthogonalLoop=1;jettySize=auto;html=1;" edge="1" parent="1" source="jR0rXX4GCu3ixdCMKzGH-28" target="jR0rXX4GCu3ixdCMKzGH-30">
          <mxGeometry relative="1" as="geometry" />
        </mxCell>
        <mxCell id="jR0rXX4GCu3ixdCMKzGH-28" value="add 1 to it" style="whiteSpace=wrap;html=1;rounded=0;" vertex="1" parent="1">
          <mxGeometry x="520" y="1085" width="120" height="60" as="geometry" />
        </mxCell>
        <mxCell id="jR0rXX4GCu3ixdCMKzGH-30" value="Update the value of x in the map" style="whiteSpace=wrap;html=1;rounded=0;" vertex="1" parent="1">
          <mxGeometry x="520" y="1225" width="120" height="60" as="geometry" />
        </mxCell>
        <mxCell id="jR0rXX4GCu3ixdCMKzGH-32" style="edgeStyle=orthogonalEdgeStyle;rounded=0;orthogonalLoop=1;jettySize=auto;html=1;entryX=0.5;entryY=1;entryDx=0;entryDy=0;entryPerimeter=0;" edge="1" parent="1" source="jR0rXX4GCu3ixdCMKzGH-30" target="jR0rXX4GCu3ixdCMKzGH-6">
          <mxGeometry relative="1" as="geometry" />
        </mxCell>
      </root>
    </mxGraphModel>
  </diagram>
</mxfile>
